<svg xmlns="http://www.w3.org/2000/svg" viewBox="0 0 100 125" x="0px" y="0px"><title>Empty cart</title><g data-name="Iconos"><path d="M35.62,77.33a6.21,6.21,0,1,0,6.21-6.22A6.22,6.22,0,0,0,35.62,77.33Zm9.42,0a3.21,3.21,0,1,1-3.21-3.22A3.21,3.21,0,0,1,45,77.33Z"/><path d="M76,71.11a6.22,6.22,0,1,0,6.21,6.22A6.22,6.22,0,0,0,76,71.11Zm0,9.43a3.22,3.22,0,1,1,3.21-3.21A3.21,3.21,0,0,1,76,80.54Z"/><path d="M16,24.86H26l7.25,44.48a1.5,1.5,0,0,0,1.48,1.26H80.93a1.5,1.5,0,0,0,0-3H36L34.8,60.46H70.92c5.42,0,11.46-.11,13.15-6.32l4-14.72a4.93,4.93,0,0,0-4.4-6.21L29.72,29.32l-.94-5.82c0-.16-.06-.31-.1-.46a.64.64,0,0,1,0-.07,8.57,8.57,0,0,0-8.32-6.51H16a4.2,4.2,0,0,0,0,8.4ZM84.88,37a1.94,1.94,0,0,1,.29,1.62l-4,14.72c-1,3.9-4.66,4.11-10.46,4.11H43.77L39.65,33,83.44,36.2A1.91,1.91,0,0,1,84.88,37ZM36.57,32.82l4.16,24.64H34.31l-4.09-25.1ZM16,19.46h4.38a5.59,5.59,0,0,1,4.59,2.4H16a1.2,1.2,0,0,1,0-2.4Z"/></g></svg>